# xmcd CD database file
#
# Track frame offsets:
#	150
#	18576
#	34099
#	50100
#	65577
#	79532
#	95773
#	114446
#
# Disc length: 1746 seconds
#
# Revision: 0
# Processed by: cddbd v1.5.1PL0 Copyright (c) Steve Scherf et al.
# Submitted via: CDex 1.51
#
DISCID=6706d008
DTITLE=Gilberto Y La Banda Lexus - Con Ritmo and Swin
DYEAR=2000
DGENRE=Merengue
TTITLE0=Las Mujeres
TTITLE1=Boquita Y Cintura Chula
TTITLE2=Morenita Consentida
TTITLE3=Tú Todo Me La Da
TTITLE4=Con Ritmo and Swim
TTITLE5=Ahora Me Dices Que No
TTITLE6=Las Modelos
TTITLE7=El Pesao
EXTD=YEAR: 2000
EXTT0=
EXTT1=
EXTT2=
EXTT3=
EXTT4=
EXTT5=
EXTT6=
EXTT7=
PLAYORDER=
